<svg width="750" height="552" viewBox="0 0 750 552" fill="none" xmlns="http://www.w3.org/2000/svg">
<g id="undraw_Login_re_4vu2 1" clip-path="url(#clip0)">
<path id="Vector" d="M542.811 545.758C531.494 535.77 524.619 519.991 526.422 504.63C528.225 489.27 539.391 475.149 553.875 471.887C568.359 468.625 584.87 477.654 589.27 492.432C591.691 463.941 594.481 434.257 608.984 409.994C622.116 388.025 644.86 372.305 669.511 369.493C694.161 366.68 720.115 377.302 735.488 397.623C750.862 417.944 754.626 447.487 743.859 470.817C735.927 488.003 721.314 500.794 706.003 511.2C656.527 544.541 597.188 558.099 538.903 549.381L542.811 545.758Z" fill="#F2F2F2"/>
<path id="Vector_2" d="M711.112 377.891C690.772 395.194 672.113 414.546 655.403 435.668C629.253 468.61 608.092 505.544 592.658 545.183C591.528 548.075 596.024 549.334 597.141 546.474C622.395 482.052 662.71 425.271 714.4 381.324C716.721 379.35 713.414 375.933 711.112 377.891Z" fill="white"/>
<path id="Vector_3" d="M500.549 550.792H129.676V153.351C129.676 68.793 195.541 0 276.501 0H353.724C434.684 0 500.549 68.793 500.549 153.351V550.792Z" fill="#F2F2F2"/>
<path id="Vector_4" d="M423.326 550.79H129.676V153.35C129.595 120.949 139.418 89.3674 157.716 63.2026C158.39 62.2424 159.063 61.2946 159.757 60.3572C168.607 48.2335 179.139 37.5563 191.006 28.6781C191.676 28.1687 192.349 27.6681 193.032 27.1676C202.961 19.9907 213.702 14.1238 225.011 9.70036C225.682 9.43453 226.366 9.16817 227.049 8.91269C237.277 5.10074 247.878 2.48958 258.658 1.12741C259.327 1.03205 260.013 0.957436 260.699 0.882819C271.204 -0.290367 281.8 -0.290367 292.305 0.882819C292.989 0.957436 293.675 1.03204 294.352 1.12843C305.129 2.49069 315.728 5.10153 325.952 8.91274C326.636 9.16822 327.32 9.43456 327.994 9.70091C339.162 14.0686 349.777 19.8479 359.601 26.91C360.283 27.3997 360.966 27.9003 361.639 28.4009C368.291 33.3599 374.538 38.8844 380.319 44.9183C384.954 49.758 389.273 54.917 393.248 60.3604C393.939 61.2946 394.612 62.2424 395.285 63.2011C413.583 89.3662 423.407 120.949 423.326 153.35V550.79Z" fill="#110E0E"/>
<path id="Vector_5" d="M399.448 373.031C408.427 373.031 415.706 365.429 415.706 356.051C415.706 346.673 408.427 339.071 399.448 339.071C390.47 339.071 383.191 346.673 383.191 356.051C383.191 365.429 390.47 373.031 399.448 373.031Z" fill="#014A7E"/>
<path id="Vector_6" d="M470.167 538.888H457.71L451.783 488.703L470.169 488.704L470.167 538.888Z" fill="#FFD2B8"/>
<path id="Vector_7" d="M448.812 535.17H472.836V550.969H433.685C433.685 548.894 434.077 546.839 434.837 544.923C435.597 543.006 436.711 541.264 438.116 539.797C439.52 538.33 441.188 537.166 443.023 536.372C444.858 535.578 446.825 535.17 448.812 535.17Z" fill="#2F2E41"/>
<path id="Vector_8" d="M532.149 538.888H519.692L513.765 488.703L532.151 488.704L532.149 538.888Z" fill="#FFD2B8"/>
<path id="Vector_9" d="M510.793 535.17H534.818V550.969H495.667C495.667 548.894 496.058 546.839 496.818 544.923C497.579 543.006 498.693 541.264 500.097 539.797C501.502 538.33 503.17 537.166 505.005 536.372C506.84 535.578 508.807 535.17 510.793 535.17Z" fill="#2F2E41"/>
<path id="Vector_10" d="M407.676 359.415C406.78 358.036 406.184 356.469 405.931 354.823C405.678 353.177 405.773 351.494 406.21 349.891C406.647 348.288 407.415 346.804 408.46 345.545C409.505 344.286 410.802 343.281 412.259 342.602L454.606 220.699L475.443 232.576L427.093 349.07C428.023 351.703 427.996 354.6 427.018 357.214C426.039 359.827 424.177 361.975 421.784 363.25C419.39 364.525 416.632 364.839 414.032 364.132C411.432 363.426 409.171 361.747 407.676 359.415Z" fill="#FFD2B8"/>
<path id="Vector_11" d="M525.786 382.321C524.401 381.492 523.208 380.356 522.289 378.993C521.371 377.63 520.749 376.074 520.469 374.433C520.189 372.792 520.256 371.107 520.667 369.497C521.078 367.886 521.822 366.389 522.846 365.111L509.728 236.159L533.441 237.29L538.893 364.132C540.834 366.072 542.027 368.688 542.244 371.485C542.462 374.282 541.69 377.065 540.074 379.307C538.459 381.549 536.112 383.094 533.478 383.65C530.845 384.205 528.108 383.733 525.786 382.321Z" fill="#FFD2B8"/>
<path id="Vector_12" d="M487.956 198.119C501.739 198.119 512.912 186.449 512.912 172.053C512.912 157.658 501.739 145.988 487.956 145.988C474.173 145.988 463 157.658 463 172.053C463 186.449 474.173 198.119 487.956 198.119Z" fill="#FFD2B8"/>
<path id="Vector_13" d="M525.626 352.994H450.388L450.478 352.382C450.613 351.468 463.887 260.648 454.097 230.936C453.115 228.016 453.201 224.82 454.34 221.963C455.478 219.106 457.589 216.789 460.264 215.459H460.265C474.258 208.577 501.119 200.102 523.791 220.669C527.127 223.746 529.732 227.591 531.4 231.9C533.068 236.209 533.754 240.865 533.402 245.498L525.626 352.994Z" fill="#014A7E"/>
<path id="Vector_14" d="M464.838 274.07L430.965 266.892L446.843 227.594C447.793 223.788 450.15 220.531 453.396 218.537C456.643 216.543 460.514 215.976 464.16 216.959C467.807 217.942 470.931 220.396 472.848 223.782C474.765 227.168 475.317 231.209 474.385 235.02L464.838 274.07Z" fill="#014A7E"/>
<path id="Vector_15" d="M508.221 287.397L506.185 238.641C504.641 229.476 509.664 220.812 517.39 219.395C525.118 217.984 532.663 224.341 534.215 233.574L541.869 279.131L508.221 287.397Z" fill="#014A7E"/>
<path id="Vector_16" d="M523.123 347.156C535.229 395.313 536.55 456.539 533.284 523.325L517.026 521.202L487.56 393.852L471.302 523.325L453.012 522.264C447.549 452.189 442.228 392.031 450.98 352.463L523.123 347.156Z" fill="#2F2E41"/>
<path id="Vector_17" d="M504.399 192.198C499.744 197.377 491.097 194.597 490.491 187.521C490.443 186.971 490.447 186.418 490.501 185.87C490.814 182.735 492.548 179.889 492.133 176.58C492.039 175.756 491.745 174.971 491.279 174.299C487.569 169.11 478.86 176.62 475.359 171.923C473.212 169.043 475.736 164.508 474.088 161.288C471.914 157.04 465.473 159.136 461.434 156.809C456.94 154.22 457.209 147.018 460.167 142.638C463.775 137.296 470.1 134.446 476.346 134.035C482.593 133.624 488.797 135.388 494.628 137.761C501.254 140.458 507.825 144.186 511.902 150.271C516.861 157.671 517.338 167.62 514.858 176.274C513.35 181.538 508.201 187.968 504.399 192.198Z" fill="#2F2E41"/>
<path id="Vector_18" d="M342.547 435.645H210.455C208.716 435.655 207.043 434.944 205.805 433.668C204.567 432.391 203.864 430.654 203.851 428.837V120.893C203.864 119.076 204.567 117.339 205.805 116.063C207.043 114.786 208.716 114.075 210.455 114.085H342.547C344.287 114.075 345.959 114.786 347.197 116.063C348.435 117.339 349.138 119.076 349.152 120.893V428.837C349.138 430.654 348.435 432.391 347.197 433.668C345.959 434.944 344.287 435.655 342.547 435.645Z" fill="white"/>
<path id="Vector_19" d="M349.152 213.726H203.851V215.848H349.152V213.726Z" fill="#110E0E"/>
<path id="Vector_20" d="M349.66 334.826H204.358V336.949H349.66V334.826Z" fill="#110E0E"/>
<path id="Vector_21" d="M251.607 114.085H249.575V436.707H251.607V114.085Z" fill="#110E0E"/>
<path id="Vector_22" d="M302.412 114.085H300.379V436.707H302.412V114.085Z" fill="#110E0E"/>
</g>
<defs>
<clipPath id="clip0">
<rect width="884" height="552" fill="white" transform="translate(-134)"/>
</clipPath>
</defs>
</svg>
