<svg width="441" height="339" viewBox="0 0 441 339" fill="none" xmlns="http://www.w3.org/2000/svg">
<g id="undraw_add_to_cart_vkjp" clip-path="url(#clip0)">
<path id="Vector" opacity="0.24" d="M430.313 230.491C429.918 230.779 429.554 231.06 429.167 231.333C427.739 232.344 426.243 233.258 424.691 234.066C416.56 238.358 406.537 240.454 396.774 241.878C374.878 245.074 352.524 245.695 330.265 246.304C270.121 247.957 209.831 249.606 149.833 245.798C126.128 244.295 101.901 241.779 80.42 234.066C77.3409 232.964 74.3225 231.748 71.3646 230.419C65.379 227.726 59.6305 224.447 54.85 220.531C50.3578 216.861 46.7151 212.644 44.5382 207.85C39.9986 197.867 42.4008 186.654 47.5843 176.869C49.7371 172.91 52.165 169.107 54.85 165.489C58.8522 159.98 63.2653 154.628 67.2913 149.122C81.6171 129.552 90.9649 104.791 77.7413 84.7183C73.9406 78.9515 68.4489 73.8888 65.3514 67.8688C61.4005 60.1679 61.7047 51.6165 62.9611 43.3104C63.1244 42.2557 63.2969 41.2115 63.4787 40.1778C65.624 27.8611 69.6618 14.5911 82.111 6.90199C95.0422 -1.0877 113.406 -0.684258 129.454 2.15564C154.412 6.61721 177.434 15.9042 200.7 24.2894C223.967 32.6747 248.308 40.336 273.878 41.1587C296.457 41.8865 322.794 36.4401 337.78 22.2841C352.335 8.53552 379.694 7.48737 399.413 15.7935C412.949 21.493 423.047 31.761 427.306 43.3104C428.169 45.6292 428.79 48.0309 429.159 50.4774C429.501 52.7133 429.612 54.9784 429.491 57.237C429.432 58.3524 429.317 59.4559 429.159 60.5476C425.864 83.338 402.147 101.315 387.73 121.673C380.686 131.616 375.712 143.561 380.556 154.284C387.944 170.623 413.636 176.434 429.151 188.592C432.071 190.805 434.642 193.445 436.777 196.424C444.303 207.245 441.526 221.86 430.313 230.491Z" fill="#152329"/>
<g id="flowers">
<path id="Vector_2" d="M101.929 128.492C101.929 128.492 83.7547 96.248 56.3673 86.961C44.8742 83.0611 34.843 75.728 27.9842 65.7053C24.7372 60.9467 21.9335 55.8996 19.6084 50.6277" stroke="#535461" stroke-width="2" stroke-miterlimit="10"/>
<path id="Vector_3" d="M2.38646 44.6592C5.50765 47.6771 20.0389 50.8413 20.0389 50.8413C20.0389 50.8413 16.4832 36.3966 13.3541 33.3629C11.8499 31.9369 9.84512 31.1618 7.77408 31.2055C5.70303 31.2492 3.73261 32.1082 2.28983 33.5963C0.847045 35.0844 0.0481301 37.0818 0.0662186 39.1555C0.084307 41.2293 0.917941 43.2123 2.38646 44.675V44.6592Z" fill="#044967"/>
<path id="Vector_4" d="M10.6081 70.7997C14.8711 71.6461 28.7821 66.3737 28.7821 66.3737C28.7821 66.3737 17.937 56.1849 13.67 55.3385C11.6421 54.981 9.555 55.433 7.85598 56.5976C6.15696 57.7622 4.98123 59.5468 4.58079 61.5689C4.18034 63.591 4.58703 65.6896 5.71369 67.4151C6.84036 69.1406 8.59735 70.3556 10.6081 70.7997Z" fill="#044967"/>
<path id="Vector_5" d="M40.5361 99.0958C44.645 97.6719 53.969 86.0948 53.969 86.0948C53.969 86.0948 39.4772 82.7763 35.3723 84.2002C34.3651 84.5134 33.431 85.0261 32.6254 85.7077C31.8199 86.3893 31.1594 87.2259 30.683 88.168C30.2067 89.11 29.9243 90.1383 29.8525 91.1917C29.7807 92.2452 29.9211 93.3023 30.2652 94.3004C30.6094 95.2985 31.1503 96.2172 31.8559 97.002C32.5615 97.7867 33.4174 98.4216 34.3728 98.8689C35.3282 99.3162 36.3636 99.5667 37.4176 99.6057C38.4716 99.6447 39.5226 99.4713 40.5084 99.0958H40.5361Z" fill="#044967"/>
<path id="Vector_6" d="M67.9947 115.388C72.2853 114.676 83.4426 104.847 83.4426 104.847C83.4426 104.847 69.7212 99.1235 65.4306 99.8315C63.37 100.172 61.5289 101.318 60.3123 103.017C59.0957 104.717 58.6032 106.83 58.9432 108.893C59.2833 110.956 60.4279 112.799 62.1254 114.017C63.8229 115.235 65.9341 115.728 67.9947 115.388Z" fill="#044967"/>
<path id="Vector_7" d="M40.8875 55.0853C40.8875 59.4361 33.0253 72.0654 33.0253 72.0654C33.0253 72.0654 25.1473 59.4441 25.1433 55.0932C25.1198 54.0434 25.3061 52.9995 25.6911 52.0228C26.0762 51.0461 26.6523 50.1562 27.3856 49.4054C28.1189 48.6546 28.9947 48.0581 29.9615 47.6508C30.9282 47.2436 31.9666 47.0338 33.0154 47.0338C34.0643 47.0338 35.1026 47.2436 36.0694 47.6508C37.0362 48.0581 37.9119 48.6546 38.6453 49.4054C39.3786 50.1562 39.9547 51.0461 40.3397 52.0228C40.7248 52.9995 40.911 54.0434 40.8875 55.0932V55.0853Z" fill="#044967"/>
<path id="Vector_8" d="M72.7634 74.573C71.4636 78.7261 60.1838 88.4165 60.1838 88.4165C60.1838 88.4165 56.4384 73.9995 57.7224 69.8267C58.4126 67.9161 59.8129 66.3461 61.6312 65.444C63.4496 64.542 65.5457 64.3776 67.4822 64.9853C69.4187 65.5929 71.0461 66.9255 72.0249 68.7053C73.0037 70.485 73.2584 72.5743 72.7357 74.5374L72.7634 74.573Z" fill="#044967"/>
<path id="Vector_9" d="M101.146 97.7313C100.57 102.046 91.0875 113.505 91.0875 113.505C91.0875 113.505 84.9636 99.9462 85.5563 95.631C85.8631 93.5842 86.9617 91.7403 88.6149 90.4975C90.2681 89.2546 92.3432 88.7126 94.3922 88.9883C96.4412 89.2641 98.2997 90.3355 99.5663 91.9713C100.833 93.6071 101.406 95.676 101.162 97.7313H101.146Z" fill="#044967"/>
<path id="Vector_10" opacity="0.25" d="M67.9947 115.388C72.2853 114.676 83.4426 104.847 83.4426 104.847C83.4426 104.847 69.7212 99.1235 65.4306 99.8315C63.37 100.172 61.5289 101.318 60.3123 103.017C59.0957 104.717 58.6032 106.83 58.9432 108.893C59.2833 110.956 60.4279 112.799 62.1254 114.017C63.8229 115.235 65.9341 115.728 67.9947 115.388Z" fill="black"/>
<path id="Vector_11" opacity="0.25" d="M72.7634 74.573C71.4636 78.7261 60.1838 88.4165 60.1838 88.4165C60.1838 88.4165 56.4384 73.9995 57.7224 69.8267C58.4126 67.9161 59.8129 66.3461 61.6312 65.444C63.4496 64.542 65.5457 64.3776 67.4822 64.9853C69.4187 65.5929 71.0461 66.9255 72.0249 68.7053C73.0037 70.485 73.2584 72.5743 72.7357 74.5374L72.7634 74.573Z" fill="black"/>
<path id="Vector_12" opacity="0.25" d="M101.146 97.7313C100.57 102.046 91.0875 113.505 91.0875 113.505C91.0875 113.505 84.9636 99.9462 85.5563 95.631C85.8631 93.5842 86.9617 91.7403 88.6149 90.4975C90.2681 89.2546 92.3432 88.7126 94.3922 88.9883C96.4412 89.2641 98.2997 90.3355 99.5663 91.9713C100.833 93.6071 101.406 95.676 101.162 97.7313H101.146Z" fill="black"/>
<path id="Vector_13" d="M100.882 127.851C100.882 127.851 97.3258 90.9954 76.0385 71.393C67.1135 63.166 60.9106 52.4076 58.6942 40.4468C57.6538 34.7777 57.1353 29.025 57.1454 23.261" stroke="#535461" stroke-width="2" stroke-miterlimit="10"/>
<path id="Vector_14" d="M43.8113 10.8296C45.439 14.8679 57.4536 23.6289 57.4536 23.6289C57.4536 23.6289 60.0414 8.97455 58.4176 4.9362C57.637 2.99554 56.1183 1.44481 54.1955 0.625165C52.2728 -0.194481 50.1036 -0.215904 48.1651 0.565607C46.2266 1.34712 44.6776 2.86755 43.8589 4.79242C43.0402 6.71728 43.0188 8.88892 43.7994 10.8296H43.8113Z" fill="#044967"/>
<path id="Vector_15" d="M40.7337 38.0617C44.2895 40.5654 59.1329 41.3842 59.1329 41.3842C59.1329 41.3842 53.3765 27.6752 49.8207 25.1715C48.1133 23.9651 45.9971 23.4872 43.9377 23.8429C41.8783 24.1985 40.0443 25.3587 38.8393 27.068C37.6343 28.7774 37.1569 30.8959 37.5122 32.9577C37.8675 35.0194 39.0263 36.8554 40.7337 38.0617Z" fill="#044967"/>
<path id="Vector_16" d="M56.6596 76.0642C61.0056 76.432 74.2173 69.6329 74.2173 69.6329C74.2173 69.6329 62.3133 60.7216 57.9792 60.3577C56.9364 60.2466 55.8819 60.3451 54.8776 60.6475C53.8733 60.9499 52.9395 61.4501 52.1309 62.1187C51.3224 62.7873 50.6554 63.6109 50.1691 64.5411C49.6829 65.4713 49.3871 66.4894 49.2992 67.5356C49.2113 68.5818 49.333 69.6351 49.6573 70.6335C49.9815 71.632 50.5017 72.5555 51.1873 73.35C51.873 74.1444 52.7102 74.7937 53.6499 75.2598C54.5896 75.7259 55.6129 75.9994 56.6596 76.0642Z" fill="#044967"/>
<path id="Vector_17" d="M75.1654 102.106C79.377 103.197 93.5567 98.7359 93.5567 98.7359C93.5567 98.7359 83.3279 87.9379 79.1202 86.8463C77.1117 86.3591 74.9924 86.682 73.2196 87.7453C71.4468 88.8085 70.1625 90.5269 69.644 92.5297C69.1255 94.5324 69.4142 96.6589 70.4479 98.4505C71.4816 100.242 73.1774 101.555 75.1693 102.106H75.1654Z" fill="#044967"/>
<path id="Vector_18" d="M74.7901 35.9813C73.0319 39.9603 60.7289 48.3099 60.7289 48.3099C60.7289 48.3099 58.635 33.5804 60.3931 29.5974C60.8003 28.6338 61.395 27.7609 62.1426 27.0298C62.8902 26.2986 63.7758 25.7238 64.7476 25.3387C65.7194 24.9537 66.7581 24.7662 67.803 24.7872C68.8479 24.8082 69.8782 25.0373 70.8338 25.461C71.7894 25.8847 72.6512 26.4947 73.3689 27.2553C74.0867 28.0159 74.6459 28.9119 75.0142 29.8911C75.3824 30.8703 75.5523 31.9131 75.5138 32.9587C75.4753 34.0044 75.2293 35.0318 74.7901 35.9813Z" fill="#044967"/>
<path id="Vector_19" d="M96.0457 66.7059C93.1774 69.977 78.9424 74.2606 78.9424 74.2606C78.9424 74.2606 81.3445 59.5785 84.2168 56.3075C84.8988 55.5299 85.7271 54.8944 86.6544 54.4374C87.5818 53.9803 88.5899 53.7105 89.6214 53.6435C90.6529 53.5764 91.6874 53.7135 92.666 54.0467C93.6445 54.3799 94.548 54.9029 95.3247 55.5856C96.1013 56.2684 96.7361 57.0977 97.1927 58.026C97.6493 58.9544 97.9187 59.9637 97.9857 60.9963C98.0526 62.0289 97.9158 63.0646 97.5829 64.0443C97.25 65.0239 96.7277 65.9284 96.0457 66.7059Z" fill="#044967"/>
<path id="Vector_20" d="M112.64 99.4123C110.364 103.122 97.0573 109.751 97.0573 109.751C97.0573 109.751 96.9466 94.8716 99.2223 91.1615C100.315 89.3782 102.071 88.1026 104.103 87.6152C106.136 87.1279 108.278 87.4688 110.06 88.5629C111.841 89.657 113.115 91.4147 113.602 93.4494C114.089 95.484 113.748 97.6289 112.655 99.4123H112.64Z" fill="#044967"/>
</g>
<path id="Vector_21" opacity="0.1" d="M161.259 336.872C185.595 336.872 205.323 334.301 205.323 331.129C205.323 327.957 185.595 325.386 161.259 325.386C136.923 325.386 117.195 327.957 117.195 331.129C117.195 334.301 136.923 336.872 161.259 336.872Z" fill="#044967"/>
<g id="floor flowers">
<path id="Vector_22" opacity="0.1" d="M72.2535 332.98C79.6461 332.98 85.639 331.953 85.639 330.686C85.639 329.419 79.6461 328.392 72.2535 328.392C64.8608 328.392 58.8679 329.419 58.8679 330.686C58.8679 331.953 64.8608 332.98 72.2535 332.98Z" fill="#044967"/>
<path id="Vector_23" d="M75.1612 305.143C75.1612 305.143 77.3302 307.987 74.1577 312.262C70.9851 316.538 68.3696 320.173 69.4166 322.85C69.4166 322.85 74.2011 314.881 78.1085 314.77C82.0159 314.659 79.4518 309.936 75.1612 305.143Z" fill="#044967"/>
<path id="Vector_24" opacity="0.1" d="M75.1613 305.143C75.3507 305.418 75.4997 305.719 75.6037 306.037C79.4045 310.506 81.4313 314.679 77.7767 314.782C74.375 314.881 70.2898 320.972 69.314 322.51C69.3462 322.63 69.3844 322.747 69.4285 322.862C69.4285 322.862 74.213 314.892 78.1205 314.782C82.0279 314.671 79.4519 309.937 75.1613 305.143Z" fill="black"/>
<path id="Vector_25" d="M79.1951 308.766C79.1951 309.766 79.0845 310.577 78.9462 310.577C78.8079 310.577 78.6934 309.786 78.6934 308.766C78.6934 307.745 78.8356 308.236 78.9739 308.236C79.1122 308.236 79.1951 307.765 79.1951 308.766Z" fill="#FFD037"/>
<path id="Vector_26" d="M80.5819 309.96C79.7048 310.439 78.9383 310.728 78.8712 310.605C78.804 310.482 79.4638 309.996 80.3409 309.517C81.218 309.039 80.8703 309.387 80.9375 309.517C81.0046 309.648 81.459 309.482 80.5819 309.96Z" fill="#FFD037"/>
<path id="Vector_27" d="M63.696 305.143C63.696 305.143 61.5269 307.987 64.6995 312.262C67.872 316.538 70.4875 320.173 69.4405 322.85C69.4405 322.85 64.656 314.881 60.7486 314.77C56.8412 314.659 59.4132 309.936 63.696 305.143Z" fill="#044967"/>
<path id="Vector_28" opacity="0.1" d="M63.696 305.143C63.5065 305.418 63.3575 305.719 63.2535 306.037C59.4528 310.506 57.426 314.679 61.0805 314.782C64.4862 314.881 68.5674 320.972 69.5433 322.51C69.5129 322.63 69.4746 322.748 69.4287 322.862C69.4287 322.862 64.6442 314.892 60.7368 314.782C56.8294 314.671 59.4133 309.937 63.696 305.143Z" fill="black"/>
<path id="Vector_29" d="M59.6621 308.766C59.6621 309.766 59.7727 310.577 59.911 310.577C60.0493 310.577 60.1639 309.786 60.1639 308.766C60.1639 307.745 60.0216 308.236 59.8834 308.236C59.7451 308.236 59.6621 307.765 59.6621 308.766Z" fill="#FFD037"/>
<path id="Vector_30" d="M58.2793 309.96C59.1564 310.439 59.9189 310.728 59.9861 310.605C60.0532 310.482 59.3934 309.996 58.5163 309.517C57.6392 309.039 57.9869 309.387 57.9198 309.517C57.8526 309.648 57.4022 309.482 58.2793 309.96Z" fill="#FFD037"/>
<path id="Vector_31" d="M60.3535 322.491C60.3535 322.491 66.4221 322.301 68.2553 320.999C70.0885 319.698 77.5872 318.136 78.0416 320.228C78.4959 322.321 87.1602 330.627 80.3094 330.682C73.4585 330.737 64.3913 329.614 62.566 328.503C60.7407 327.391 60.3535 322.491 60.3535 322.491Z" fill="#A8A8A8"/>
<path id="Vector_32" opacity="0.2" d="M80.4279 329.954C73.5771 330.01 64.5098 328.886 62.6845 327.775C61.2938 326.924 60.7407 323.883 60.555 322.483H60.3535C60.3535 322.483 60.7486 327.379 62.5621 328.495C64.3755 329.61 73.4546 330.729 80.3054 330.674C82.2808 330.674 82.9683 329.954 82.9288 328.91C82.6562 329.551 81.9016 329.942 80.4279 329.954Z" fill="black"/>
<path id="Vector_33" d="M263.009 322.257C263.009 322.257 246.305 321.249 248.277 332.968C248.277 332.968 247.882 335.037 249.758 335.978C249.758 335.978 249.79 335.112 251.473 335.405C252.072 335.506 252.681 335.535 253.286 335.492C254.107 335.438 254.887 335.115 255.507 334.574C255.507 334.574 260.2 332.636 262.026 324.951C262.026 324.951 263.377 323.274 263.326 322.843L260.505 324.029C260.505 324.029 261.469 326.066 260.71 327.759C260.71 327.759 260.619 324.104 260.078 324.199C259.967 324.199 258.612 324.903 258.612 324.903C258.612 324.903 260.272 328.463 259.007 331.026C259.007 331.026 259.481 326.675 258.083 325.16L256.107 326.319C256.107 326.319 258.043 329.982 256.732 332.972C256.732 332.972 257.067 328.388 255.692 326.6L253.895 328.004C253.895 328.004 255.712 331.615 254.602 334.095C254.602 334.095 254.46 328.76 253.504 328.356C253.504 328.356 251.923 329.745 251.69 330.334C251.69 330.334 252.935 332.952 252.164 334.337C252.164 334.337 251.69 330.777 251.299 330.777C251.299 330.777 249.719 333.15 249.569 334.732C249.569 334.732 249.64 332.331 250.92 330.536C250.016 330.708 249.183 331.141 248.522 331.782C248.522 331.782 248.767 330.116 251.287 329.97C251.287 329.97 252.583 328.182 252.931 328.075C252.931 328.075 250.402 327.862 248.869 328.542C248.869 328.542 250.217 326.96 253.393 327.684L255.167 326.236C255.167 326.236 251.84 325.777 250.426 326.284C250.426 326.284 252.054 324.891 255.645 325.888L257.581 324.733C257.581 324.733 254.74 324.12 253.049 324.338C253.049 324.338 254.835 323.373 258.146 324.417L259.529 323.796C259.529 323.796 257.447 323.4 256.838 323.325C256.23 323.25 256.198 323.092 256.198 323.092C257.516 322.872 258.868 323.023 260.106 323.527C260.106 323.527 263.061 322.443 263.009 322.257Z" fill="#044967"/>
<path id="Vector_34" opacity="0.1" d="M251.504 339C258.033 339 263.326 338.104 263.326 336.999C263.326 335.893 258.033 334.997 251.504 334.997C244.976 334.997 239.683 335.893 239.683 336.999C239.683 338.104 244.976 339 251.504 339Z" fill="#044967"/>
<path id="Vector_35" d="M233.745 322.882C233.745 322.882 224.326 322.313 225.448 328.922C225.392 329.257 225.442 329.601 225.593 329.906C225.743 330.211 225.986 330.46 226.286 330.619C226.286 330.619 226.286 330.128 227.254 330.294C227.591 330.349 227.933 330.366 228.273 330.346C228.735 330.312 229.175 330.13 229.526 329.828C229.526 329.828 232.173 328.732 233.204 324.401C233.204 324.401 233.963 323.456 233.935 323.214L232.355 323.891C232.355 323.891 232.896 325.042 232.469 325.995C232.469 325.995 232.418 323.934 232.114 323.982C232.05 323.982 231.288 324.377 231.288 324.377C231.288 324.377 232.22 326.355 231.517 327.83C231.517 327.83 231.782 325.366 230.995 324.52L229.877 325.176C229.877 325.176 230.968 327.241 230.229 328.926C230.229 328.926 230.419 326.339 229.64 325.334L228.629 326.126C228.629 326.126 229.652 328.162 229.024 329.559C229.024 329.559 228.941 326.549 228.404 326.323C228.019 326.648 227.675 327.019 227.38 327.427C227.38 327.427 228.084 328.906 227.649 329.685C227.649 329.685 227.38 327.68 227.163 327.672C227.163 327.672 226.278 329.001 226.187 329.911C226.227 329.067 226.489 328.248 226.946 327.538C226.437 327.634 225.967 327.877 225.595 328.238C225.595 328.238 225.733 327.296 227.175 327.217C227.175 327.217 227.902 326.209 228.099 326.149C228.099 326.149 226.673 326.027 225.808 326.41C225.808 326.41 226.57 325.524 228.36 325.928L229.36 325.109C229.36 325.109 227.483 324.852 226.689 325.137C226.689 325.137 227.606 324.346 229.632 324.923L230.719 324.274C229.882 324.089 229.023 324.014 228.167 324.053C228.167 324.053 229.174 323.511 231.039 324.096L231.829 323.748C231.829 323.748 230.644 323.515 230.316 323.479C229.988 323.444 229.952 323.349 229.952 323.349C230.696 323.225 231.459 323.31 232.157 323.594C232.157 323.594 233.773 322.989 233.745 322.882Z" fill="#044967"/>
<path id="Vector_36" opacity="0.1" d="M227.258 332.323C230.939 332.323 233.923 331.819 233.923 331.196C233.923 330.574 230.939 330.069 227.258 330.069C223.577 330.069 220.593 330.574 220.593 331.196C220.593 331.819 223.577 332.323 227.258 332.323Z" fill="#044967"/>
<path id="Vector_37" d="M251.67 308.877C251.67 308.877 240.304 308.188 241.643 316.166C241.574 316.571 241.635 316.987 241.817 317.355C241.998 317.723 242.292 318.024 242.654 318.215C242.654 318.215 242.654 317.626 243.82 317.819C244.227 317.885 244.641 317.904 245.053 317.879C245.611 317.839 246.142 317.62 246.566 317.254C246.566 317.254 249.762 315.933 251.003 310.7C251.003 310.7 251.923 309.561 251.888 309.268L249.968 310.087C249.968 310.087 250.623 311.475 250.11 312.626C250.11 312.626 250.047 310.138 249.675 310.198C249.604 310.198 248.68 310.676 248.68 310.676C248.68 310.676 249.81 313.093 248.956 314.845C248.956 314.845 249.28 311.871 248.328 310.85L246.977 311.641C246.977 311.641 248.296 314.133 247.403 316.17C247.403 316.17 247.633 313.049 246.692 311.819L245.467 312.772C245.467 312.772 246.708 315.229 245.953 316.918C245.953 316.918 245.855 313.287 245.203 313.01C245.203 313.01 244.132 313.955 243.97 314.343C243.97 314.343 244.82 316.127 244.29 317.068C244.29 317.068 243.97 314.651 243.705 314.639C243.705 314.639 242.639 316.221 242.52 317.341C242.571 316.325 242.887 315.34 243.437 314.485C242.822 314.602 242.255 314.896 241.805 315.332C241.805 315.332 241.971 314.196 243.701 314.097C243.701 314.097 244.582 312.883 244.82 312.808C244.82 312.808 243.097 312.666 242.054 313.128C242.054 313.128 242.971 312.057 245.136 312.543L246.345 311.558C246.345 311.558 244.077 311.246 243.117 311.59C243.117 311.59 244.223 310.645 246.672 311.333L247.988 310.542C247.988 310.542 246.056 310.146 244.906 310.277C244.906 310.277 246.119 309.62 248.375 310.328L249.316 309.909C249.316 309.909 247.897 309.628 247.482 309.584C247.068 309.541 247.048 309.426 247.048 309.426C247.944 309.277 248.865 309.38 249.707 309.723C249.707 309.723 251.71 309.003 251.67 308.877Z" fill="#044967"/>
<path id="Vector_38" opacity="0.1" d="M243.844 320.272C248.288 320.272 251.892 319.663 251.892 318.911C251.892 318.16 248.288 317.55 243.844 317.55C239.399 317.55 235.796 318.16 235.796 318.911C235.796 319.663 239.399 320.272 243.844 320.272Z" fill="#044967"/>
</g>
<g id="browser">
<path id="Vector_39" d="M429.894 231.254V37.7888H54.0281V220.155C58.8284 224.166 64.6006 227.54 70.6217 230.313C73.5875 231.681 76.6165 232.932 79.7087 234.066H425.41L429.894 231.254Z" fill="url(#paint0_linear)"/>
<path id="Vector_40" d="M429.167 231.333V43.3263H54.8499V220.563C59.6304 224.463 65.3789 227.742 71.3645 230.451C74.3197 231.769 77.3382 232.985 80.4199 234.098H424.691L429.167 231.333Z" fill="white"/>
<path id="Vector_41" d="M429.167 38.3386H54.8538V48.2822H429.167V38.3386Z" fill="#2D2C2C"/>
</g>
<g id="buttons">
<path id="Vector_42" d="M62.3291 45.8814C63.7474 45.8814 64.8971 44.7303 64.8971 43.3104C64.8971 41.8906 63.7474 40.7395 62.3291 40.7395C60.9107 40.7395 59.761 41.8906 59.761 43.3104C59.761 44.7303 60.9107 45.8814 62.3291 45.8814Z" fill="white"/>
<path id="Vector_43" d="M69.2431 45.8814C70.6614 45.8814 71.8112 44.7303 71.8112 43.3104C71.8112 41.8906 70.6614 40.7395 69.2431 40.7395C67.8248 40.7395 66.675 41.8906 66.675 43.3104C66.675 44.7303 67.8248 45.8814 69.2431 45.8814Z" fill="white"/>
<path id="Vector_44" d="M76.1572 45.8814C77.5755 45.8814 78.7253 44.7303 78.7253 43.3104C78.7253 41.8906 77.5755 40.7395 76.1572 40.7395C74.7389 40.7395 73.5891 41.8906 73.5891 43.3104C73.5891 44.7303 74.7389 45.8814 76.1572 45.8814Z" fill="white"/>
</g>
<g id="boxes">
<path id="Vector_45" d="M212.34 70.1352H150.509V109.032H212.34V70.1352Z" fill="#5E5E5E"/>
<path id="Vector_46" opacity="0.2" d="M126.728 70.1352H64.897V109.032H126.728V70.1352Z" fill="#2D2C2C"/>
<path id="Vector_47" opacity="0.2" d="M297.951 70.1352H236.12V109.032H297.951V70.1352Z" fill="#2D2C2C"/>
<path id="Vector_48" opacity="0.2" d="M126.728 125.743H64.897V164.639H126.728V125.743Z" fill="#2D2C2C"/>
<path id="Vector_49" opacity="0.2" d="M212.34 125.743H150.509V164.639H212.34V125.743Z" fill="#2D2C2C"/>
<path id="Vector_50" opacity="0.2" d="M297.951 125.743H236.12V164.639H297.951V125.743Z" fill="#2D2C2C"/>
<path id="Vector_51" opacity="0.2" d="M126.728 181.346H64.897V220.242H126.728V181.346Z" fill="#2D2C2C"/>
<path id="Vector_52" opacity="0.2" d="M212.34 181.346H150.509V220.242H212.34V181.346Z" fill="#2D2C2C"/>
<path id="Vector_53" opacity="0.2" d="M297.951 181.346H236.12V220.242H297.951V181.346Z" fill="#2D2C2C"/>
</g>
<g id="woman">
<path id="Vector_54" d="M197.188 104.206L192.921 105.717L191.372 103.146C190.187 101.168 188.543 98.463 187.331 96.4972C185.189 93.0403 187.99 87.7718 187.99 87.7718C187.99 87.7718 188.496 82.4836 190.298 80.854C192.099 79.2244 192.601 87.7718 192.601 87.7718C199.835 91.0626 195.959 98.8031 195.959 98.8031L196.662 101.872L197.188 104.206Z" fill="#EFB7B9"/>
<path id="Vector_55" opacity="0.1" d="M197.188 104.206L192.921 105.717L191.372 103.146V102.921C191.372 102.921 193.818 101.24 196.67 101.872L197.188 104.206Z" fill="black"/>
<path id="Vector_56" d="M190.298 121.53L192.435 119.719L191.364 103.415C191.364 103.415 196.896 99.6258 200.989 105.555C200.989 105.555 200.823 109.178 200.989 110.167C201.155 111.155 199.839 112.144 200.989 113.129C202.138 114.114 200.989 117.413 200.989 117.413C200.989 117.413 202.289 119.719 203.11 120.375C203.932 121.032 204.758 126.47 203.11 127.621C201.463 128.772 198.373 131.411 198.373 132.562C198.373 133.713 194.422 136.517 194.422 136.517L190.953 131.925L190.298 121.53Z" fill="#044967"/>
<path id="Vector_57" d="M144.072 220.5C136.099 217.114 137.869 208.843 139.371 204.678C139.671 203.835 140.023 203.01 140.426 202.21L144.898 199.493C144.898 199.493 145.811 201.823 146.787 204.947C149.05 212.217 151.654 223.723 144.072 220.5Z" fill="#EFB7B9"/>
<path id="Vector_58" d="M155.032 295.962C154.492 297.016 154.094 298.135 153.847 299.293C153.452 301.155 153.28 303.058 153.333 304.961C153.365 306.278 153.475 307.14 153.475 307.14L144.594 313.255C144.594 313.255 144.645 312.539 144.732 311.487C144.961 308.687 145.439 303.489 145.89 302.817C146.202 302.35 146.419 300.475 146.557 298.735C146.696 296.995 146.751 295.468 146.751 295.468C146.751 295.468 157.438 291.457 155.032 295.962Z" fill="#EFB7B9"/>
<path id="Vector_59" d="M176.007 300.349C176.007 300.349 176.007 302.05 175.944 304.027C175.881 306.005 175.762 308.339 175.513 309.426C175.284 310.423 175.268 312.254 175.312 313.943C175.371 315.921 175.513 317.701 175.513 317.701C175.513 317.701 166.446 309.118 167.371 308.437C167.62 308.255 167.864 307.524 168.09 306.551C168.366 305.364 168.615 303.782 168.801 302.437C169.022 300.835 169.16 299.546 169.16 299.546L176.007 300.349Z" fill="#EFB7B9"/>
<path id="Vector_60" opacity="0.1" d="M155.032 295.962C154.492 297.016 154.094 298.135 153.847 299.293C151.416 299.229 148.989 299.043 146.577 298.735C146.711 297.034 146.771 295.468 146.771 295.468C146.771 295.468 157.438 291.457 155.032 295.962Z" fill="black"/>
<path id="Vector_61" opacity="0.1" d="M176.007 300.349C176.007 300.349 176.007 302.05 175.944 304.027C173.115 304.751 170.207 303.303 168.801 302.445C169.022 300.843 169.16 299.554 169.16 299.554L176.007 300.349Z" fill="black"/>
<path id="Vector_62" d="M194.572 216.22C190.953 224.13 189.472 233.512 189.472 233.512L188.156 241.423C188.156 241.423 188.816 244.88 188.156 246.197C187.496 247.514 186.181 249.658 186.181 249.658C186.181 249.658 187.168 257.727 186.181 258.549C185.193 259.372 186.181 264.312 186.181 264.312L182.89 280.924L178.283 302.33C173.842 305.957 167.932 301.346 167.932 301.346L169.235 287.348C169.235 287.348 171.211 262.825 170.389 261.82C169.567 260.816 170.717 257.703 170.717 257.703C170.717 257.703 171.871 254.736 171.049 253.585C170.227 252.434 171.211 249.962 171.211 249.962C171.211 249.962 170.883 239.916 171.871 237.61C172.858 235.304 171.871 221.041 171.871 221.041L171.476 216.6L171.246 214.139L171.227 213.898C171.227 213.898 171.077 214.883 170.832 216.41C170.105 221.057 168.556 230.688 167.944 232.67C167.527 234.098 166.962 235.478 166.256 236.787C166.256 236.787 167.11 241.727 166.256 243.045C165.403 244.362 166.126 245.845 166.126 245.845C166.126 245.845 166.948 249.962 164.479 251.608C162.009 253.253 164.479 254.08 164.479 254.08C164.479 254.08 162.669 258.035 162.013 259.677C161.357 261.318 162.013 263.632 162.013 263.632L160.698 276.969C160.698 276.969 159.544 282.566 159.71 286.355C159.876 290.144 158.228 298.87 158.228 298.87C158.228 298.87 145.562 298.87 143.61 297.386C141.658 295.903 146.87 281.435 146.87 281.435C146.87 281.435 148.351 256.073 148.019 255.417C147.687 254.76 148.019 249.816 149.173 248.831C150.327 247.846 149.173 245.865 149.173 245.865C149.173 245.865 148.845 241.909 149.173 240.925C149.501 239.94 149.122 236.641 149.122 236.641C149.122 236.641 148.019 228.572 147.857 223.96C147.695 219.348 146.87 208.978 146.87 208.978C146.87 208.978 147.731 202.562 147.861 199.509C147.909 198.385 148.41 196.981 149.046 195.66C149.758 194.169 150.577 192.73 151.496 191.357C151.496 191.357 190.471 179.823 192.107 180.97C192.542 181.275 193.174 183.343 193.798 186.338C195.536 194.703 197.235 210.406 194.572 216.22Z" fill="#2D2C2C"/>
<path id="Vector_63" d="M170.559 115.57C176.828 115.57 181.91 110.482 181.91 104.206C181.91 97.9301 176.828 92.8425 170.559 92.8425C164.29 92.8425 159.208 97.9301 159.208 104.206C159.208 110.482 164.29 115.57 170.559 115.57Z" fill="#A1616A"/>
<path id="Vector_64" opacity="0.1" d="M193.798 186.346C192.49 187.018 191.613 187.481 191.613 187.481C191.613 187.481 173.19 196.21 167.951 195.716C163.898 195.32 153.55 195.546 149.042 195.656C149.754 194.165 150.573 192.727 151.492 191.353C151.492 191.353 190.471 179.823 192.107 180.97C192.542 181.283 193.174 183.343 193.798 186.346Z" fill="black"/>
<path id="Vector_65" d="M162.661 122.353C162.661 122.353 152.148 124.014 149.667 125.644C147.186 127.273 142.271 130.422 142.271 137.173C142.271 143.925 141.121 150.843 140.461 152.817C139.802 154.79 150.824 170.766 150.824 170.766L146.874 194.976C146.874 194.976 162.677 194.482 167.94 194.976C173.202 195.47 191.617 186.741 191.617 186.741C191.617 186.741 202.474 180.978 204.778 180.808C207.081 180.638 200.171 168.127 200.171 168.127C200.171 168.127 189.476 147.876 191.285 144.582C193.095 141.287 194.422 136.513 194.422 136.513L192.447 119.719C192.447 119.719 189.488 118.73 187.018 120.541C184.549 122.353 176.161 121.364 176.161 121.364L162.661 122.353Z" fill="#044967"/>
<path id="Vector_66" opacity="0.1" d="M144.815 151.666L140.69 152.817L139.549 168.313C139.549 168.313 141.03 172.431 139.549 173.748C138.067 175.065 137.739 203.227 137.739 203.227C137.739 203.227 142.512 206.684 148.102 204.049C148.102 204.049 147.28 200.921 149.75 189.557C152.219 178.194 152.215 172.431 152.215 172.431C152.215 172.431 152.215 158.267 153.369 155.961C154.522 153.655 153.369 147.892 153.369 147.892C153.369 147.892 151.065 144.764 151.227 143.613C151.389 142.462 144.815 151.666 144.815 151.666Z" fill="black"/>
<path id="Vector_67" opacity="0.1" d="M146.787 204.959C144.364 205.776 141.728 205.68 139.371 204.69C139.671 203.846 140.023 203.022 140.426 202.222L144.898 199.505C144.898 199.505 145.827 201.835 146.787 204.959Z" fill="black"/>
<path id="Vector_68" d="M144.566 151.666L140.453 152.817L139.304 168.313C139.304 168.313 140.785 172.431 139.304 173.748C137.822 175.065 137.494 203.227 137.494 203.227C137.494 203.227 142.271 206.68 147.857 204.034C147.857 204.034 147.035 200.905 149.501 189.541C151.966 178.178 151.97 172.415 151.97 172.415C151.97 172.415 151.97 158.251 153.12 155.945C154.27 153.639 153.12 147.876 153.12 147.876C153.12 147.876 150.816 144.748 150.982 143.597C151.148 142.446 144.566 151.666 144.566 151.666Z" fill="#044967"/>
<path id="Vector_69" opacity="0.1" d="M186.679 154.134C186.679 154.134 184.541 172.577 178.287 176.038C178.287 176.038 192.269 172.087 186.679 154.134Z" fill="black"/>
<path id="Vector_70" opacity="0.1" d="M155.261 155.783C155.261 155.783 162.989 159.568 161.188 162.202C159.386 164.837 155.261 155.783 155.261 155.783Z" fill="black"/>
<path id="Vector_71" opacity="0.1" d="M155.261 163.357C155.261 163.357 160.196 168.464 159.212 170.275C158.228 172.087 155.261 163.357 155.261 163.357Z" fill="black"/>
<path id="Vector_72" opacity="0.1" d="M195.066 121.036C195.066 121.036 197.002 124.327 197.188 126.47C197.373 128.614 195.066 121.036 195.066 121.036Z" fill="black"/>
<path id="Vector_73" opacity="0.1" d="M195.066 116.59C195.066 116.59 196.038 115.763 198.519 116.59C201 117.417 195.066 116.59 195.066 116.59Z" fill="black"/>
<path id="Vector_74" opacity="0.1" d="M185.568 212.842C181.493 213.421 177.336 212.888 173.538 211.299L171.464 216.615L171.235 214.155C171.574 212.091 172.234 209.88 173.538 209.322C173.538 209.322 178.105 212.965 185.568 212.842Z" fill="black"/>
<path id="Vector_75" opacity="0.1" d="M151.824 219.76C151.824 219.76 161.942 221.86 164.779 221.488L151.824 219.76Z" fill="black"/>
<path id="Vector_76" opacity="0.1" d="M152.875 222.414C152.875 222.414 157.193 222.228 159.35 223.094L152.875 222.414Z" fill="black"/>
<path id="Vector_77" opacity="0.1" d="M153.369 224.206C155.339 224.625 157.339 224.889 159.35 224.997L153.369 224.206Z" fill="black"/>
<path id="Vector_78" opacity="0.1" d="M153.12 246.869C153.306 246.747 161.756 244.769 162.807 246.189L153.12 246.869Z" fill="black"/>
<path id="Vector_79" opacity="0.1" d="M153.12 249.464C153.12 249.464 160.461 248.598 160.646 249.464C160.832 250.33 153.12 249.464 153.12 249.464Z" fill="black"/>
<path id="Vector_80" opacity="0.1" d="M153.12 251.81C153.12 251.81 160.954 250.188 161.879 250.583C162.803 250.979 153.12 251.81 153.12 251.81Z" fill="black"/>
<path id="Vector_81" opacity="0.1" d="M153.491 307.144L144.61 313.259C144.61 313.259 144.661 312.543 144.748 311.491C146.723 306.626 149.295 304.059 149.295 304.059C151.298 303.537 152.563 304.019 153.349 304.965C153.381 306.278 153.491 307.144 153.491 307.144Z" fill="black"/>
<path id="Vector_82" d="M154.356 312.638C153.101 315.504 152.47 318.606 152.503 321.735C152.554 324.301 151.903 326.833 150.623 329.056C150.438 329.37 150.229 329.669 149.999 329.95C149.999 329.95 143.827 329.899 141.666 328.107C141.423 327.915 141.225 327.672 141.085 327.395C139.849 324.927 143.492 315.478 143.492 315.478C145.404 308.192 149.287 304.3 149.287 304.3C156.205 302.508 154.356 312.638 154.356 312.638Z" fill="#2D2C2C"/>
<path id="Vector_83" opacity="0.1" d="M150.623 329.037C150.438 329.35 150.229 329.649 149.999 329.93C149.999 329.93 143.827 329.879 141.666 328.087C142.729 324.567 146.119 313.915 147.707 315.727C149.201 317.428 150.24 325.611 150.623 329.037Z" fill="black"/>
<path id="Vector_84" d="M149.777 316.388L149.347 332.343H151.417C151.417 332.343 151.753 318.345 152.677 316.388C153.602 314.43 149.777 316.388 149.777 316.388Z" fill="#2D2C2C"/>
<path id="Vector_85" opacity="0.1" d="M175.513 317.701C175.513 317.701 166.446 309.118 167.371 308.437C167.62 308.256 167.864 307.524 168.09 306.551C169.832 306.246 172.831 306.974 175.312 313.943C175.371 315.921 175.513 317.701 175.513 317.701Z" fill="black"/>
<path id="Vector_86" d="M176.868 327.273C176.799 327.302 176.726 327.324 176.651 327.336C175.584 327.522 171.653 327.415 169.453 327.336C169.049 327.322 168.667 327.153 168.386 326.863C168.106 326.573 167.948 326.185 167.947 325.781C167.947 325.188 167.947 324.464 167.9 323.693C167.797 321.257 167.505 318.357 166.632 317.705C165.087 316.518 163.866 312.492 166.632 307.393C166.632 307.393 171.934 303.339 175.758 315.525C175.758 315.525 176.13 319.002 177.793 320.236C179.456 321.47 177.611 326.92 176.868 327.273Z" fill="#2D2C2C"/>
<path id="Vector_87" opacity="0.1" d="M176.643 327.336C175.577 327.522 171.645 327.415 169.445 327.336C169.042 327.322 168.659 327.153 168.378 326.863C168.098 326.573 167.94 326.185 167.939 325.781C167.939 325.188 167.94 324.464 167.892 323.693C168.56 320.742 169.52 317.705 170.756 317.012C170.764 317.009 174.506 316.585 176.643 327.336Z" fill="black"/>
<path id="Vector_88" d="M167.303 316.653L168.299 329.931H169.563V315.521L167.303 316.653Z" fill="#2D2C2C"/>
<path id="Vector_89" opacity="0.1" d="M170.393 86.0987C166.809 86.3658 163.34 87.4815 160.271 89.3539C159.481 89.8325 158.69 90.414 158.363 91.2723C158.078 92.0158 158.197 92.8544 158.208 93.6454C158.315 100.456 150.729 105.61 150.966 112.417C151.061 115.119 152.416 117.634 152.665 120.328C153.08 124.821 150.425 128.954 147.881 132.676C150.502 132.836 153.084 131.979 155.091 130.283C157.776 139.242 158.123 148.74 156.099 157.871H159.737C160.097 157.845 160.458 157.89 160.8 158.002C161.12 158.154 161.406 158.368 161.642 158.631C165.043 162.021 167.323 167.032 166.023 171.66L173.767 168.752C175.62 168.056 177.501 167.348 179.113 166.201C180.724 165.054 182.076 163.389 182.415 161.435C182.625 160.249 182.558 158.833 183.534 158.144C184.014 157.888 184.527 157.698 185.059 157.579C187.184 156.827 188.124 154.367 188.559 152.152C189.088 149.435 189.254 146.659 189.053 143.897C188.709 139.27 187.342 134.571 188.468 130.054C189.104 127.519 190.519 125.157 190.633 122.539C190.819 118.224 187.449 114.506 186.947 110.214C186.595 107.224 187.674 104.198 187.322 101.208C187.127 99.6646 186.563 98.1911 185.678 96.9125C184.793 95.6338 183.613 94.5878 182.238 93.863C181.285 93.3725 180.262 93.0442 179.322 92.5023C177.177 91.2564 175.806 89.0138 173.858 87.4712C171.91 85.9287 168.666 85.3472 167.201 87.3526L170.393 86.0987Z" fill="black"/>
<path id="Vector_90" d="M170.393 85.6043C166.809 85.8714 163.34 86.9871 160.271 88.8595C159.481 89.3381 158.69 89.9195 158.363 90.7778C158.078 91.5214 158.197 92.36 158.208 93.151C158.315 99.962 150.729 105.116 150.966 111.927C151.061 114.624 152.416 117.14 152.665 119.837C153.08 124.331 150.425 128.464 147.881 132.19C150.501 132.344 153.081 131.487 155.091 129.797C157.775 138.753 158.122 148.248 156.099 157.377H159.737C160.097 157.352 160.458 157.398 160.8 157.512C161.12 157.66 161.407 157.873 161.642 158.136C165.043 161.53 167.323 166.537 166.023 171.165L173.767 168.258C175.62 167.562 177.501 166.854 179.112 165.707C180.724 164.56 182.076 162.895 182.415 160.941C182.625 159.754 182.558 158.338 183.534 157.65C184.014 157.394 184.527 157.204 185.059 157.084C187.184 156.333 188.124 153.873 188.559 151.658C189.093 148.938 189.263 146.16 189.065 143.395C188.721 138.767 187.354 134.069 188.48 129.552C189.116 127.016 190.531 124.655 190.645 122.037C190.831 117.721 187.461 114.003 186.959 109.712C186.607 106.722 187.686 103.7 187.334 100.706C187.138 99.1625 186.574 97.6893 185.689 96.4107C184.804 95.1322 183.624 94.086 182.249 93.3606C181.297 92.8702 180.274 92.5419 179.334 92.004C177.188 90.7541 175.817 88.5115 173.87 86.9689C171.922 85.4263 168.678 84.8449 167.212 86.8502L170.393 85.6043Z" fill="#2D2C2C"/>
<g id="Group" opacity="0.1">
<path id="Vector_91" opacity="0.1" d="M158.2 91.5056C158.185 91.658 158.177 91.8112 158.177 91.9644C158.189 91.8141 158.197 91.6599 158.2 91.5056Z" fill="black"/>
<path id="Vector_92" opacity="0.1" d="M186.916 107.339C187.058 105.242 187.524 103.138 187.35 101.05C187.22 103.146 186.754 105.25 186.916 107.339Z" fill="black"/>
<path id="Vector_93" opacity="0.1" d="M152.665 117.761C152.436 115.309 151.294 113.014 151.026 110.566C150.972 111.015 150.952 111.467 150.967 111.919C151.061 114.589 152.385 117.084 152.654 119.742C152.719 119.084 152.723 118.42 152.665 117.761Z" fill="black"/>
<path id="Vector_94" opacity="0.1" d="M188.496 127.503C188.126 129.112 187.993 130.767 188.101 132.415C188.14 131.454 188.272 130.499 188.496 129.563C189.132 127.028 190.546 124.667 190.661 122.048C190.68 121.583 190.658 121.118 190.598 120.656C190.29 123.009 189.061 125.201 188.496 127.503Z" fill="black"/>
<path id="Vector_95" opacity="0.1" d="M155.091 127.716C153.443 129.099 151.404 129.929 149.26 130.089C148.809 130.794 148.343 131.482 147.881 132.162C150.501 132.316 153.081 131.46 155.091 129.769C156.535 134.577 157.308 139.562 157.391 144.582C157.508 138.874 156.732 133.184 155.091 127.716Z" fill="black"/>
<path id="Vector_96" opacity="0.1" d="M188.571 149.585C188.136 151.8 187.196 154.26 185.07 155.008C184.538 155.126 184.025 155.318 183.545 155.577C182.569 156.266 182.636 157.689 182.427 158.868C182.087 160.822 180.74 162.483 179.124 163.614C177.508 164.746 175.632 165.473 173.779 166.17L166.39 168.938C166.352 169.681 166.233 170.417 166.035 171.133L173.779 168.226C175.632 167.53 177.512 166.822 179.124 165.675C180.736 164.528 182.087 162.863 182.427 160.909C182.636 159.722 182.569 158.306 183.545 157.618C184.026 157.362 184.539 157.172 185.07 157.053C187.196 156.301 188.136 153.841 188.571 151.626C189.021 149.321 189.207 146.972 189.128 144.625C189.076 146.291 188.889 147.949 188.571 149.585Z" fill="black"/>
<path id="Vector_97" opacity="0.1" d="M161.654 156.052C161.419 155.787 161.132 155.574 160.812 155.423C160.47 155.311 160.109 155.265 159.749 155.289H156.522C156.395 155.977 156.261 156.665 156.126 157.349H159.765C160.125 157.324 160.486 157.37 160.828 157.484C161.148 157.633 161.434 157.845 161.67 158.109C164.159 160.593 166.043 163.939 166.367 167.372C166.766 163.266 164.641 159.042 161.654 156.052Z" fill="black"/>
</g>
<path id="Vector_98" opacity="0.1" d="M143.602 169.532C143.602 169.532 146.542 168.298 147.198 169.532C147.853 170.766 143.602 169.532 143.602 169.532Z" fill="black"/>
<path id="Vector_99" opacity="0.1" d="M144.641 171.648C144.641 171.648 147.581 170.414 148.241 171.648C148.9 172.882 144.641 171.648 144.641 171.648Z" fill="black"/>
</g>
<g id="leaves">
<path id="Vector_100" opacity="0.1" d="M326.82 11.9529C326.82 11.9529 311.787 11.0471 313.561 21.5919C313.561 21.5919 313.209 23.4549 314.896 24.3013C314.896 24.3013 314.924 23.5102 316.437 23.7831C316.976 23.8739 317.524 23.9005 318.069 23.8623C318.805 23.8112 319.504 23.521 320.06 23.0356C320.06 23.0356 324.283 21.2913 325.927 14.3775C325.927 14.3775 327.144 12.8665 327.112 12.4789L324.576 13.5666C324.576 13.5666 325.441 15.3979 324.758 16.9207C324.758 16.9207 324.679 13.6299 324.189 13.709C324.09 13.709 322.873 14.3419 322.873 14.3419C322.873 14.3419 324.362 17.5338 323.236 19.8555C323.236 19.8555 323.663 15.924 322.407 14.5752L320.613 15.6392C320.613 15.6392 322.355 18.934 321.174 21.6236C321.174 21.6236 321.478 17.4982 320.238 15.8923L318.618 17.1541C318.618 17.1541 320.258 20.3856 319.27 22.6163C319.27 22.6163 319.139 17.8107 318.278 17.4507C318.278 17.4507 316.864 18.7006 316.65 19.2148C316.65 19.2148 317.768 21.588 317.073 22.8141C317.073 22.8141 316.646 19.6182 316.283 19.6024C316.283 19.6024 314.872 21.7224 314.726 23.1622C314.795 21.8188 315.213 20.5166 315.939 19.3849C315.126 19.5391 314.375 19.9297 313.782 20.5082C313.782 20.5082 313.999 19.0091 316.287 18.8746C316.287 18.8746 317.452 17.2688 317.765 17.1699C317.765 17.1699 315.489 16.9801 314.11 17.5931C314.11 17.5931 315.323 16.1771 318.183 16.8021L319.764 15.4968C319.764 15.4968 316.769 15.1013 315.497 15.5403C315.497 15.5403 316.959 14.2905 320.194 15.2002L321.933 14.1599C321.933 14.1599 319.38 13.6062 317.859 13.8079C317.859 13.8079 319.463 12.9417 322.442 13.8791L323.687 13.3214C323.687 13.3214 321.814 12.9536 321.269 12.8942C320.724 12.8349 320.692 12.6846 320.692 12.6846C321.877 12.4872 323.093 12.6242 324.204 13.0801C324.204 13.0801 326.863 12.119 326.82 11.9529Z" fill="#044967"/>
<path id="Vector_101" opacity="0.1" d="M305.394 3.40155C305.394 3.40155 292.751 11.593 300.42 19.0329C300.42 19.0329 301.238 20.7415 303.099 20.4251C303.099 20.4251 302.656 19.7764 304.035 19.0922C304.524 18.8458 304.982 18.5417 305.398 18.1864C305.961 17.7085 306.354 17.0601 306.516 16.3393C306.516 16.3393 308.887 12.4236 306.121 5.88152C306.121 5.88152 306.208 3.94342 305.94 3.65864L304.541 6.03182C304.541 6.03182 306.323 6.99295 306.674 8.62253C306.674 8.62253 304.663 6.02391 304.304 6.37593C304.233 6.44712 303.616 7.66931 303.616 7.66931C303.616 7.66931 306.71 9.35426 307.172 11.8896C307.172 11.8896 305.197 8.46828 303.375 8.13208L302.554 10.0306C302.554 10.0306 305.912 11.6523 306.552 14.5199C306.552 14.5199 304.351 11.0155 302.403 10.4578L301.85 12.4354C301.85 12.4354 305.09 14.0808 305.608 16.4698C305.608 16.4698 302.66 12.6807 301.752 12.9101C301.752 12.9101 301.356 14.7532 301.483 15.2832C301.483 15.2832 303.782 16.5173 303.956 17.9333C303.956 17.9333 301.72 15.6115 301.432 15.8053C301.432 15.8053 301.55 18.3486 302.289 19.6064C301.55 18.4834 301.117 17.1868 301.033 15.8449C300.468 16.4516 300.095 17.2108 299.958 18.0282C299.958 18.0282 299.247 16.6913 301.013 15.2279C301.013 15.2279 301.013 13.2502 301.191 12.9773C301.191 12.9773 299.247 14.1639 298.496 15.485C298.496 15.485 298.638 13.626 301.321 12.4473L301.835 10.4499C301.835 10.4499 299.18 11.8975 298.425 13.0169C298.425 13.0169 298.863 11.1421 302.004 9.95546L302.795 8.08461C302.795 8.08461 300.424 9.1565 299.302 10.2205C299.302 10.2205 300.092 8.56716 303.04 7.55856L303.711 6.37197C303.711 6.37197 301.985 7.18676 301.511 7.46363C301.036 7.7405 300.922 7.63767 300.922 7.63767C301.759 6.77546 302.819 6.16331 303.984 5.86965C303.984 5.86965 305.529 3.5123 305.394 3.40155Z" fill="#044967"/>
<path id="Vector_102" opacity="0.1" d="M286.154 12.9457C286.154 12.9457 278.596 25.9981 288.801 29.1347C288.801 29.1347 290.306 30.2857 291.819 29.1347C291.819 29.1347 291.136 28.7629 292.052 27.5249C292.371 27.083 292.636 26.6051 292.842 26.101C293.128 25.4189 293.185 24.6625 293.004 23.9453C293.004 23.9453 293.34 19.3809 287.908 14.8046C287.908 14.8046 287.118 13.0406 286.723 12.9101L286.553 15.6788C286.553 15.6788 288.575 15.7262 289.63 17.0196C289.63 17.0196 286.659 15.6155 286.509 16.0862C286.478 16.1811 286.482 17.5496 286.482 17.5496C286.482 17.5496 290.033 17.6564 291.614 19.7053C291.614 19.7053 288.295 17.5575 286.529 18.0796L286.655 20.1443C286.655 20.1443 290.381 20.0652 292.25 22.3316C292.25 22.3316 288.694 20.2076 286.719 20.5952L287.114 22.6084C287.114 22.6084 290.748 22.6084 292.289 24.4991C292.289 24.4991 287.943 22.4581 287.236 23.0633C287.236 23.0633 287.714 24.8906 288.078 25.3139C288.078 25.3139 290.685 25.3692 291.483 26.5519C291.483 26.5519 288.437 25.4958 288.267 25.8043C288.267 25.8043 289.528 28.0153 290.756 28.7985C289.591 28.1368 288.617 27.1826 287.931 26.0298C287.704 26.8263 287.715 27.672 287.963 28.4623C287.963 28.4623 286.722 27.5961 287.631 25.4879C287.631 25.4879 286.723 23.7238 286.774 23.4035C286.774 23.4035 285.589 25.3534 285.51 26.8604C285.51 26.8604 284.791 25.1398 286.647 22.8734L286.201 20.8562C286.201 20.8562 284.49 23.352 284.324 24.6929C284.324 24.6929 283.866 22.822 286.13 20.3421L285.98 18.3209C285.98 18.3209 284.344 20.3579 283.838 21.8095C283.838 21.8095 283.783 19.9821 285.96 17.7395L286.019 16.3749C286.019 16.3749 284.834 17.8819 284.553 18.3525C284.273 18.8232 284.107 18.756 284.107 18.756C284.463 17.6065 285.13 16.5783 286.035 15.7856C286.035 15.7856 286.32 12.9813 286.154 12.9457Z" fill="#044967"/>
</g>
<path id="Vector_103" d="M351.047 161.736C349.928 161.736 348.835 162.068 347.906 162.69C346.976 163.312 346.251 164.196 345.823 165.23C345.395 166.264 345.283 167.402 345.502 168.5C345.72 169.598 346.258 170.606 347.049 171.398C347.84 172.19 348.847 172.729 349.944 172.947C351.04 173.165 352.177 173.053 353.21 172.625C354.243 172.197 355.126 171.471 355.748 170.54C356.369 169.61 356.7 168.515 356.7 167.396C356.696 165.896 356.099 164.459 355.04 163.398C353.98 162.338 352.545 161.74 351.047 161.736ZM334.516 117.322V122.982H340.17L350.347 143.621L346.092 150.554C345.628 151.374 345.384 152.301 345.385 153.244C345.385 157.033 347.973 158.904 351.481 158.904H384.538V153.461H352.173C352.078 153.467 351.984 153.453 351.895 153.419C351.807 153.386 351.727 153.334 351.66 153.267C351.593 153.2 351.541 153.119 351.508 153.031C351.474 152.942 351.46 152.848 351.465 152.753C351.54 152.509 351.641 152.272 351.766 152.049L354.591 147.584H375.653C376.67 147.592 377.671 147.319 378.543 146.795C379.416 146.271 380.127 145.516 380.599 144.613L390.781 127.087C390.979 126.642 391.076 126.159 391.065 125.671C391.061 125.307 390.984 124.948 390.839 124.614C390.693 124.28 390.483 123.978 390.219 123.728C389.955 123.477 389.644 123.282 389.303 123.153C388.963 123.025 388.6 122.967 388.236 122.982H346.393L343.706 117.322H334.516ZM378.881 161.736C377.763 161.737 376.67 162.069 375.741 162.692C374.811 163.314 374.087 164.198 373.66 165.233C373.233 166.267 373.121 167.405 373.34 168.502C373.559 169.6 374.097 170.608 374.888 171.399C375.679 172.191 376.686 172.729 377.783 172.947C378.88 173.165 380.016 173.053 381.049 172.625C382.082 172.196 382.965 171.471 383.586 170.54C384.207 169.609 384.538 168.515 384.538 167.396C384.534 165.895 383.936 164.457 382.876 163.397C381.816 162.336 380.379 161.739 378.881 161.736Z" fill="#044967"/>
<path id="Vector_104" d="M371.647 132.981H366.905V128.234H363.35V132.981H358.609V136.541H363.35V141.287H366.905V136.541H371.647V132.981Z" fill="white"/>
</g>
<defs>
<linearGradient id="paint0_linear" x1="241.959" y1="234.066" x2="241.959" y2="37.7888" gradientUnits="userSpaceOnUse">
<stop stop-color="#808080" stop-opacity="0.25"/>
<stop offset="0.54" stop-color="#808080" stop-opacity="0.12"/>
<stop offset="1" stop-color="#808080" stop-opacity="0.1"/>
</linearGradient>
<clipPath id="clip0">
<rect width="441" height="339" fill="white"/>
</clipPath>
</defs>
</svg>
